<svg width="124" height="126" viewBox="0 0 124 126" fill="none" xmlns="http://www.w3.org/2000/svg">
<path d="M16.6722 123H7.92198C6.28132 122.817 3 121.575 3 118.068C3 113.685 8.46886 111.493 10.1095 111.493C11.4221 111.493 16.8545 87.7489 19.4066 75.8767C20.1358 73.3196 23.1254 68.6438 29.2505 70.3973C35.3757 72.1507 36.5424 77.3379 36.3601 79.7123L28.1568 111.493C26.6984 112.406 23.7817 115 23.7817 118.068C23.7817 121.904 27.063 123 30.8912 123C34.7194 123 38.5476 120.808 39.6414 118.068L60.97 40.2603C61.8814 33.6849 60.8606 19.8767 49.4853 17.2466C48.3916 12.6804 44.6727 3.43836 38.5476 3L31.985 15.0548C29.9797 15.7854 25.5317 17.9041 23.7817 20.5342C22.0316 23.1644 20.1358 28.2055 19.4066 30.3973C18.1305 31.6758 15.1409 34.3425 13.3908 34.7808C11.2033 35.3288 12.2971 46.8356 25.4223 51.2192L62.6106 64.9178C72.2723 68.3881 90.83 81.9041 87.7674 108.205C87.0382 113.137 83.9392 123 77.3766 123C70.8139 123 57.8709 123 52.2198 123C50.7614 122.817 47.8447 121.575 47.8447 118.068C47.8447 113.685 51.6729 109.301 57.6886 109.301C62.5012 109.301 83.3923 109.301 93.2363 109.301C108.184 107.84 133.268 93.6301 114.018 48.4794C113.289 46.8356 111.284 43.7671 109.096 44.6438C106.362 45.7397 106.362 48.4794 106.908 51.2192C107.455 53.9589 126.596 123 90.5018 123" stroke="#504E76" stroke-width="5" stroke-linecap="round"/>
</svg>
