<svg width="22" height="18" viewBox="0 0 22 18" fill="none" xmlns="http://www.w3.org/2000/svg">
<path fill-rule="evenodd" clip-rule="evenodd" d="M17.7018 6.85232C17.7018 10.6368 13.7391 13.7046 8.85092 13.7046C3.96269 13.7046 0 10.6368 0 6.85232C0 5.5547 0.465891 4.34132 1.27524 3.30698L1.53299 0.993848C1.59415 0.44496 2.08869 0.0495815 2.63758 0.110744L5.26955 0.404023C5.37633 0.415922 5.4773 0.444223 5.57023 0.486136C6.58476 0.172495 7.69182 0 8.85092 0C10.1153 0 11.3177 0.205254 12.4057 0.575071C12.4065 0.574947 12.4073 0.574825 12.408 0.574703L15.0232 0.157531C15.5686 0.0705308 16.0812 0.442129 16.1682 0.987518L16.5668 3.48604C16.5673 3.48886 16.5677 3.49167 16.5681 3.49448C17.29 4.48678 17.7018 5.63232 17.7018 6.85232Z" fill="#F1642E"/>
<circle cx="13.9919" cy="9.22597" r="4.14093" stroke="#504E76" stroke-width="2"/>
<path d="M17.1594 12.5521L20.9475 16.3402" stroke="#504E76" stroke-width="2" stroke-linecap="round"/>
</svg>
