<svg width="36" height="46" viewBox="0 0 36 46" fill="none" xmlns="http://www.w3.org/2000/svg">
<mask id="path-1-inside-1_29_132" fill="white">
<path fill-rule="evenodd" clip-rule="evenodd" d="M36 2C36 0.895431 35.1046 0 34 0H2C0.895431 0 0 0.895433 0 2V43.4085C0 45.2575 2.29373 46.1164 3.50813 44.7221L16.4919 29.8156C17.289 28.9004 18.711 28.9004 19.5081 29.8156L32.4919 44.7221C33.7063 46.1164 36 45.2575 36 43.4085V2Z"/>
</mask>
<path d="M19.5081 29.8156L21.7703 27.8452L19.5081 29.8156ZM3.50813 44.7221L1.24593 42.7517L3.50813 44.7221ZM2 3H34V-3H2V3ZM3 43.4085V2H-3V43.4085H3ZM5.77033 46.6925L18.7541 31.786L14.2297 27.8452L1.24593 42.7517L5.77033 46.6925ZM17.2459 31.786L30.2297 46.6925L34.7541 42.7517L21.7703 27.8452L17.2459 31.786ZM33 2V43.4085H39V2H33ZM30.2297 46.6925C33.2657 50.1781 39 48.0309 39 43.4085H33C33 42.484 34.1469 42.0546 34.7541 42.7517L30.2297 46.6925ZM18.7541 31.786C18.3555 32.2436 17.6445 32.2436 17.2459 31.786L21.7703 27.8452C19.7775 25.5572 16.2226 25.5572 14.2297 27.8452L18.7541 31.786ZM-3 43.4085C-3 48.0309 2.73434 50.1781 5.77033 46.6925L1.24593 42.7517C1.85313 42.0546 3 42.484 3 43.4085H-3ZM34 3C33.4477 3 33 2.55229 33 2H39C39 -0.761426 36.7614 -3 34 -3V3ZM2 -3C-0.761429 -3 -3 -0.761415 -3 2H3C3 2.55228 2.55229 3 2 3V-3Z" fill="#FDF8E2" mask="url(#path-1-inside-1_29_132)"/>
</svg>
