<svg width="28" height="34" viewBox="0 0 28 34" fill="none" xmlns="http://www.w3.org/2000/svg">
<mask id="path-1-inside-1_1_777" fill="white">
<path fill-rule="evenodd" clip-rule="evenodd" d="M27.0101 2C27.0101 0.895431 26.1147 0 25.0101 0H2C0.89543 0 0 0.89543 0 2V31.2348C0 33.0838 2.29373 33.9426 3.50813 32.5484L11.9969 22.8025C12.7941 21.8873 14.216 21.8873 15.0132 22.8025L23.502 32.5484C24.7164 33.9426 27.0101 33.0838 27.0101 31.2348V2Z"/>
</mask>
<path d="M23.502 32.5484L25.0101 31.2348L23.502 32.5484ZM15.0132 22.8025L16.5213 21.4889L15.0132 22.8025ZM3.50813 32.5484L2 31.2348L3.50813 32.5484ZM2 2H25.0101V-2H2V2ZM2 31.2348V2H-2V31.2348H2ZM5.01626 33.862L13.5051 24.1161L10.4888 21.4889L2 31.2348L5.01626 33.862ZM13.5051 24.1161L21.9939 33.862L25.0101 31.2348L16.5213 21.4889L13.5051 24.1161ZM25.0101 2V31.2348H29.0101V2H25.0101ZM21.9939 33.862C24.4227 36.6505 29.0101 34.9327 29.0101 31.2348H25.0101C25.0101 31.2467 25.0092 31.2534 25.0089 31.2555C25.0085 31.2576 25.0085 31.2568 25.0095 31.2539C25.0105 31.2509 25.012 31.2471 25.0141 31.243C25.0162 31.239 25.0185 31.2354 25.0206 31.2325C25.0248 31.2268 25.0271 31.2255 25.025 31.2271C25.0226 31.2288 25.0175 31.232 25.0101 31.2348C25.0027 31.2376 24.9968 31.2385 24.9938 31.2388C24.9912 31.2389 24.9938 31.2384 25.0008 31.24C25.0042 31.2407 25.0083 31.2419 25.0125 31.2436C25.0168 31.2453 25.0205 31.2472 25.0231 31.2488C25.0258 31.2504 25.0263 31.251 25.0247 31.2496C25.023 31.2482 25.018 31.2438 25.0101 31.2348L21.9939 33.862ZM13.5051 24.1161L13.5051 24.1161L16.5213 21.4889C14.927 19.6585 12.0831 19.6585 10.4888 21.4889L13.5051 24.1161ZM-2 31.2348C-2 34.9327 2.58747 36.6505 5.01626 33.862L2 31.2348C1.99217 31.2438 1.98712 31.2482 1.98547 31.2496C1.98382 31.251 1.98431 31.2504 1.987 31.2488C1.98966 31.2472 1.99328 31.2453 1.9976 31.2436C2.00186 31.2419 2.00589 31.2407 2.00937 31.24C2.01635 31.2384 2.01889 31.2389 2.01631 31.2388C2.01335 31.2385 2.0074 31.2376 2 31.2348C1.9926 31.232 1.98748 31.2288 1.9851 31.2271C1.98302 31.2255 1.9853 31.2268 1.98954 31.2325C1.99165 31.2354 1.9939 31.239 1.99601 31.243C1.99814 31.2471 1.99966 31.2509 2.00063 31.2539C2.00161 31.2568 2.00158 31.2576 2.00124 31.2555C2.0009 31.2534 2 31.2467 2 31.2348H-2ZM25.0101 2H29.0101C29.0101 -0.209139 27.2193 -2 25.0101 -2V2ZM2 -2C-0.209139 -2 -2 -0.20914 -2 2H2L2 2V-2Z" fill="#C4C3E3" mask="url(#path-1-inside-1_1_777)"/>
</svg>
