<svg width="22" height="17" viewBox="0 0 22 17" fill="none" xmlns="http://www.w3.org/2000/svg">
<path fill-rule="evenodd" clip-rule="evenodd" d="M17.3333 6.70968C17.3333 10.4153 13.4531 13.4194 8.66667 13.4194C3.8802 13.4194 0 10.4153 0 6.70968C0 5.43908 0.456186 4.25097 1.24867 3.23816L1.49876 0.99385C1.55992 0.444962 2.05446 0.0495819 2.60335 0.110744L5.13915 0.393308C5.24847 0.40549 5.35171 0.434865 5.44646 0.478438C6.442 0.169792 7.52872 0 8.66667 0C9.90493 0 11.0825 0.201047 12.148 0.563278C12.1554 0.561925 12.1629 0.560652 12.1704 0.559458L14.69 0.157529C15.2354 0.0705287 15.748 0.442127 15.835 0.987516L16.2187 3.39292C16.2202 3.40236 16.2216 3.41179 16.2228 3.42122C16.9299 4.39298 17.3333 5.51486 17.3333 6.70968Z" fill="#F1642E"/>
<circle cx="13.7005" cy="9.03391" r="4.03391" stroke="#504E76" stroke-width="2"/>
<path d="M16.8023 12.2908L20.5115 16" stroke="#504E76" stroke-width="2" stroke-linecap="round"/>
</svg>
