<svg width="32" height="25" viewBox="0 0 32 25" fill="none" xmlns="http://www.w3.org/2000/svg">
<path fill-rule="evenodd" clip-rule="evenodd" d="M26 10.0645C26 15.623 20.1797 20.129 13 20.129C5.8203 20.129 0 15.623 0 10.0645C0 8.15861 0.684287 6.37643 1.87303 4.85721L2.30352 0.993849C2.36469 0.444961 2.85923 0.0495819 3.40812 0.110744L8.20566 0.645333C8.24925 0.65019 8.29186 0.657779 8.33336 0.667912C9.78181 0.236477 11.3552 0 13 0C14.8571 0 16.6232 0.301474 18.2212 0.844656L22.5287 0.157532C23.0741 0.0705325 23.5868 0.442131 23.6738 0.98752L24.335 5.13287C25.3952 6.59027 26 8.27271 26 10.0645Z" fill="#F1642E"/>
<circle cx="20.5509" cy="13.5509" r="6.55086" stroke="white" stroke-width="2"/>
<path d="M25.2034 18.4362L30.7672 24" stroke="white" stroke-width="2" stroke-linecap="round"/>
</svg>
