<svg width="19" height="23" viewBox="0 0 19 23" fill="none" xmlns="http://www.w3.org/2000/svg">
<mask id="path-1-inside-1_1_786" fill="white">
<path fill-rule="evenodd" clip-rule="evenodd" d="M19 2C19 0.895431 18.1046 0 17 0H2C0.895431 0 0 0.895429 0 2V20.3878C0 22.2368 2.29373 23.0956 3.50813 21.7014L7.99187 16.5536C8.78902 15.6384 10.211 15.6384 11.0081 16.5536L15.4919 21.7014C16.7063 23.0956 19 22.2368 19 20.3878V2Z"/>
</mask>
<path d="M11.0081 16.5536L12.5163 15.24L11.0081 16.5536ZM3.50813 21.7014L2 20.3878L3.50813 21.7014ZM2 2H17V-2H2V2ZM2 20.3878V2H-2V20.3878H2ZM5.01626 23.015L9.5 17.8672L6.48374 15.24L2 20.3878L5.01626 23.015ZM9.5 17.8672L13.9837 23.015L17 20.3878L12.5163 15.24L9.5 17.8672ZM17 2V20.3878H21V2H17ZM13.9837 23.015C16.4125 25.8035 21 24.0857 21 20.3878H17C17 20.3997 16.9991 20.4064 16.9988 20.4085C16.9984 20.4106 16.9984 20.4098 16.9994 20.4069C17.0003 20.4039 17.0019 20.4002 17.004 20.396C17.0061 20.392 17.0084 20.3884 17.0105 20.3855C17.0147 20.3798 17.017 20.3785 17.0149 20.3801C17.0125 20.3818 17.0074 20.385 17 20.3878C16.9926 20.3906 16.9866 20.3915 16.9837 20.3918C16.9811 20.392 16.9836 20.3914 16.9906 20.393C16.9941 20.3937 16.9981 20.3949 17.0024 20.3966C17.0067 20.3983 17.0103 20.4002 17.013 20.4018C17.0157 20.4034 17.0162 20.404 17.0145 20.4026C17.0129 20.4012 17.0078 20.3968 17 20.3878L13.9837 23.015ZM9.5 17.8672L9.5 17.8672L12.5163 15.24C10.922 13.4096 8.07805 13.4096 6.48374 15.24L9.5 17.8672ZM-2 20.3878C-2 24.0857 2.58747 25.8035 5.01626 23.015L2 20.3878C1.99217 20.3968 1.98712 20.4012 1.98547 20.4026C1.98382 20.404 1.98431 20.4034 1.987 20.4018C1.98966 20.4002 1.99328 20.3983 1.9976 20.3966C2.00186 20.3949 2.00589 20.3937 2.00937 20.393C2.01635 20.3914 2.01889 20.392 2.01631 20.3918C2.01335 20.3915 2.0074 20.3906 2 20.3878C1.9926 20.385 1.98748 20.3818 1.9851 20.3801C1.98302 20.3785 1.9853 20.3798 1.98954 20.3855C1.99165 20.3884 1.9939 20.392 1.99601 20.396C1.99814 20.4002 1.99966 20.4039 2.00063 20.4069C2.00161 20.4098 2.00158 20.4106 2.00124 20.4085C2.0009 20.4064 2 20.3997 2 20.3878H-2ZM17 2L17 2H21C21 -0.209139 19.2091 -2 17 -2V2ZM2 -2C-0.209138 -2 -2 -0.209141 -2 2H2L2 2V-2Z" fill="#504E76" mask="url(#path-1-inside-1_1_786)"/>
</svg>
